<?xml version="1.0" encoding="UTF-8" standalone="no"?>
<!-- Created with Inkscape (http://www.inkscape.org/) -->

<svg
   xmlns:dc="http://purl.org/dc/elements/1.1/"
   xmlns:cc="http://creativecommons.org/ns#"
   xmlns:rdf="http://www.w3.org/1999/02/22-rdf-syntax-ns#"
   xmlns:svg="http://www.w3.org/2000/svg"
   xmlns="http://www.w3.org/2000/svg"
   xmlns:sodipodi="http://sodipodi.sourceforge.net/DTD/sodipodi-0.dtd"
   xmlns:inkscape="http://www.inkscape.org/namespaces/inkscape"
   id="svg2"
   version="1.1"
   inkscape:version="0.91 r13725"
   xml:space="preserve"
   width="690.98767"
   height="806.89044"
   viewBox="0 0 690.98767 806.89044"
   sodipodi:docname="logo-alcalina.svg"><metadata
     id="metadata8"><rdf:RDF><cc:Work
         rdf:about=""><dc:format>image/svg+xml</dc:format><dc:type
           rdf:resource="http://purl.org/dc/dcmitype/StillImage" /><dc:title></dc:title></cc:Work></rdf:RDF></metadata><defs
     id="defs6"><clipPath
       clipPathUnits="userSpaceOnUse"
       id="clipPath16"><path
         d="m 0,727.464 760.461,0 L 760.461,0 0,0 0,727.464 Z"
         id="path18"
         inkscape:connector-curvature="0" /></clipPath><clipPath
       clipPathUnits="userSpaceOnUse"
       id="clipPath52"><path
         d="m 0,727.464 760.461,0 L 760.461,0 0,0 0,727.464 Z"
         id="path54"
         inkscape:connector-curvature="0" /></clipPath><clipPath
       clipPathUnits="userSpaceOnUse"
       id="clipPath116"><path
         d="m 0,727.464 760.461,0 L 760.461,0 0,0 0,727.464 Z"
         id="path118"
         inkscape:connector-curvature="0" /></clipPath><clipPath
       clipPathUnits="userSpaceOnUse"
       id="clipPath128"><path
         d="m 0,727.464 760.461,0 L 760.461,0 0,0 0,727.464 Z"
         id="path130"
         inkscape:connector-curvature="0" /></clipPath><clipPath
       clipPathUnits="userSpaceOnUse"
       id="clipPath164"><path
         d="m 0,727.464 760.461,0 L 760.461,0 0,0 0,727.464 Z"
         id="path166"
         inkscape:connector-curvature="0" /></clipPath><clipPath
       clipPathUnits="userSpaceOnUse"
       id="clipPath188"><path
         d="m 0,727.464 760.461,0 L 760.461,0 0,0 0,727.464 Z"
         id="path190"
         inkscape:connector-curvature="0" /></clipPath></defs><sodipodi:namedview
     pagecolor="#ffffff"
     bordercolor="#666666"
     borderopacity="1"
     objecttolerance="10"
     gridtolerance="10"
     guidetolerance="10"
     inkscape:pageopacity="0"
     inkscape:pageshadow="2"
     inkscape:window-width="1360"
     inkscape:window-height="733"
     id="namedview4"
     showgrid="false"
     inkscape:zoom="0.25953174"
     inkscape:cx="346.20062"
     inkscape:cy="412.12042"
     inkscape:window-x="0"
     inkscape:window-y="35"
     inkscape:window-maximized="1"
     inkscape:current-layer="g10"
     fit-margin-top="0"
     fit-margin-left="0"
     fit-margin-right="0"
     fit-margin-bottom="0" /><g
     id="g10"
     inkscape:groupmode="layer"
     inkscape:label="logo alcalina-curva"
     transform="matrix(1.25,0,0,-1.25,-129.0875,849.43504)"><g
       id="g12"><g
         id="g14"
         clip-path="url(#clipPath16)"><g
           id="g20"
           transform="translate(588.3384,373.5596)"><path
             d="m 0,0 c -0.213,5.364 -0.964,9.908 -4.003,13.718 -3.993,5.005 -9.154,4.308 -11.421,-1.626 -1.71,-4.476 -1.594,-9.11 -0.236,-13.658 1.667,-5.585 6.139,-10.01 9.495,-9.617 C -2.691,-10.775 -0.028,-5.657 0,0 m -450.487,20.551 c 0.2,-1.266 0.361,-3.787 1.029,-6.166 1.131,-4.031 2.39,-8.396 7.294,-9.188 5.102,-0.824 8.46,2.324 11.021,6.303 5.019,7.8 6.752,16.246 4.451,25.318 -1.047,4.125 -2.542,8.226 -7.496,8.981 -4.817,0.733 -8.392,-1.736 -10.965,-5.546 -3.747,-5.55 -5.145,-11.846 -5.334,-19.702 M -11.418,-189.19 c -0.555,3.751 -4.19,5.556 -7.889,7.123 -11.723,4.963 -22.498,11.357 -32.185,19.712 -13.198,11.381 -25.099,23.811 -33.863,39.004 -1.405,2.435 -3.164,4.368 -5.741,1.503 -5.13,-5.701 -10.574,-11.038 -16.411,-16.022 -2.695,-2.303 -2.46,-6.025 0.703,-6.91 7.614,-2.132 12.818,-7.656 18.763,-12.014 20.699,-15.173 37.962,-33.303 47.739,-57.632 3.01,-7.488 7.68,-8.014 12.136,-1.309 4.517,6.798 9.179,13.448 14.382,19.737 1.352,1.635 2.577,3.519 2.366,6.808 M -42.3,166.409 c -0.838,-5.548 -1.296,-11.176 -4.403,-15.848 -12.255,-18.43 -23.55,-37.498 -36.706,-55.332 -4.147,-5.62 -8.599,-10.349 -16.16,-11.43 -4.831,-0.692 -6.067,-4.983 -2.57,-8.496 5.43,-5.455 10.421,-11.186 14.496,-17.721 1.938,-3.108 4.451,-2.978 7.232,-1.073 2.468,1.689 3.192,4.082 3.188,6.913 -0.006,3.924 0.861,7.656 3.509,10.668 14.624,16.629 28.637,33.796 43.814,49.937 3.995,4.248 8.544,6.576 14.722,4.721 5.176,-1.554 8.741,1.521 8.794,6.99 0.039,3.995 -1.687,7.428 -3.652,10.732 -6.681,11.23 -15.544,20.758 -23.986,30.613 -1.59,1.856 -3.595,2.674 -5.774,1.688 -2.446,-1.108 -3.774,-3.292 -3.528,-6.065 0.19,-2.136 0.679,-4.245 1.024,-6.297 M 2.337,-64.87 l 0,0.129 c -2.497,0 -4.997,-0.055 -7.493,0.01 -12.789,0.326 -24.258,4.023 -33.292,13.514 -3.289,3.454 -2.611,7.11 1.394,9.474 2.31,1.363 4.802,1.182 7.284,0.807 2.488,-0.375 3.81,-1.19 2.755,-4.315 -1.353,-4.01 -1.124,-8.017 3.46,-10.228 7.24,-3.492 13.775,-0.699 16.111,6.928 0.532,1.737 0.81,3.575 0.992,5.388 0.331,3.295 2.034,4.665 5.324,4.449 2.715,-0.179 5.208,-0.997 7.666,-2.041 6.172,-2.621 11.579,-6.511 17.112,-10.212 6.609,-4.42 10.009,-2.829 11.117,5.094 0.204,1.463 0.243,2.988 0.089,4.456 -0.589,5.627 -1.039,11.244 -1.181,16.917 -0.284,11.237 -8.42,15.689 -18.133,9.822 -7.586,-4.583 -15.597,-7.37 -24.398,-8.009 -9.466,-0.686 -18.929,-1.371 -28.436,-1.265 -2.78,0.031 -5.3,0.644 -7.551,2.156 -2.61,1.754 -5.47,3.263 -8.334,1.472 -3.316,-2.075 -1.209,-5.429 -0.978,-8.26 0.824,-10.087 2.223,-20.132 -2.263,-29.91 -2.832,-6.172 -0.422,-9.542 6.512,-10.644 24.627,-3.915 49.234,-7.924 71.962,-19.048 3.568,-1.746 5.755,-0.349 6.527,3.419 1.245,6.079 1.49,12.247 0.991,18.396 -0.512,6.314 -5.962,11.955 -12.121,12.947 -2.962,0.478 -4.802,-0.371 -4.753,-3.908 0.034,-2.47 3.131,-5.377 0.451,-7.095 -1.914,-1.226 -5.163,-0.378 -7.816,-0.439 C 4.336,-64.89 3.337,-64.87 2.337,-64.87 m -74.502,-158.142 c -0.064,-8.305 -3.913,-15.039 -11.034,-20.746 -2.782,-2.231 -4.027,-1.955 -5.953,1.07 -9.419,14.788 -17.494,30.267 -24.267,46.412 -4.971,11.848 -7.697,24.107 -5.178,37.055 0.499,2.565 0.557,5.141 -2.12,6.604 -2.846,1.555 -5.458,0.698 -7.799,-1.305 -6.766,-5.793 -14.581,-9.123 -23.42,-10.259 -2.186,-0.281 -4.806,-0.371 -5.756,-3.168 -1.051,-3.092 1.164,-4.695 3.082,-6.198 5.802,-4.548 10.97,-9.641 15.394,-15.584 12.047,-16.182 18.502,-34.865 24.69,-53.733 2.605,-7.947 3.029,-16.376 5.859,-24.226 2.34,-6.489 6.15,-8.235 12.47,-5.515 3.03,1.303 5.836,3.194 8.605,5.028 15.202,10.068 29.331,21.419 41.292,35.274 4.798,5.557 4.316,10.281 -1.688,12.999 -6.556,2.968 -12.589,6.8 -18.901,10.158 -1.903,1.013 -4.115,3.219 -6.3,0.943 -2.023,-2.107 -1.796,-4.945 -0.678,-7.515 1.083,-2.485 1.877,-4.98 1.702,-7.294 m -303.133,345.19 c -0.981,4.266 -2.37,8.34 -4.496,12.089 -6.228,10.976 -18.445,13.042 -27.841,4.626 -4.37,-3.914 -7.907,-8.571 -10.721,-13.724 -8.564,-15.685 -15.143,-32.21 -20.611,-49.191 -0.609,-1.891 -1.078,-3.872 -1.26,-5.843 -0.309,-3.349 2.027,-4.906 5.082,-3.49 2.349,1.087 3.918,3.114 5.378,5.12 2.361,3.242 5.45,5.696 9.191,6.564 15.053,3.492 29.12,1.847 40.846,-9.328 3.073,-2.929 6.034,-5.767 10.576,-5.962 2.485,-0.107 4.866,0.307 5.75,2.946 1.145,3.418 3.752,5.383 6.406,7.412 4.498,3.44 8.999,6.875 13.434,10.394 7.237,5.742 9.979,13.31 7.929,22.21 -3.563,15.474 -13.511,25.676 -31.829,19.21 -2.505,-0.885 -4.958,-1.916 -7.834,-3.033 m 315.983,-243.671 c 0.132,0.315 0.264,0.63 0.397,0.944 7.185,-1.926 14.385,-3.801 21.552,-5.79 10.61,-2.945 21.255,-5.454 32.415,-4.859 15.704,0.838 29.755,15.76 29.159,31.223 -0.124,3.231 -1.437,5.657 -5.189,5.122 -14.453,-2.057 -28.188,1.181 -41.602,5.917 -10.639,3.757 -21.599,7.096 -30.545,14.422 -6.778,5.552 -8.662,5.203 -11.717,-3.007 -0.634,-1.708 -1.193,-3.478 -1.499,-5.269 -1.231,-7.204 0.89,-9.859 8.255,-10.274 17.213,-0.97 33.994,-4.278 50.47,-9.236 2.539,-0.763 4.999,-1.806 7.452,-2.826 0.535,-0.223 1.196,-0.865 1.251,-1.374 0.11,-1.027 -0.87,-1.241 -1.676,-1.372 -3.499,-0.57 -6.979,-0.102 -10.452,0.292 -13.434,1.523 -26.36,5.465 -39.52,8.296 -15.722,3.382 -22.696,0.666 -31.077,-11.308 -2.615,-3.737 -2.173,-6.347 1.628,-8.616 1.286,-0.768 2.498,-1.662 3.806,-2.389 19.36,-10.761 35.589,-25.044 48.71,-42.914 3.25,-4.426 6.993,-8.513 11.748,-11.452 5.073,-3.134 10.058,-2.894 13.525,1.345 5.195,6.347 8.995,13.59 11.422,21.453 0.615,1.992 1.202,4.508 -0.997,5.967 -2.006,1.33 -4.183,0.393 -6.149,-0.621 -0.885,-0.456 -1.848,-0.886 -2.543,-1.565 -5.459,-5.332 -11.114,-4.284 -16.755,-0.48 -7.866,5.303 -15.617,10.777 -23.476,16.093 -6.152,4.16 -12.392,8.19 -18.593,12.278 m -3.398,133.504 0.472,0 c 0,-2.998 -0.005,-5.997 0.002,-8.996 0.006,-3 -0.345,-6.345 2.979,-7.847 3.355,-1.516 6.282,0.323 8.592,2.541 4.243,4.073 9.015,7.372 13.99,10.413 15.202,9.29 30.482,18.454 45.61,27.862 5.214,3.245 10.134,4.718 15.764,1.047 2.674,-1.744 5.582,-0.908 7.871,1.049 2.404,2.055 1.914,4.787 0.896,7.387 -0.483,1.232 -1.233,2.357 -1.79,3.563 -9.818,21.262 -21.887,41.599 -26.656,64.936 -0.465,2.276 -0.898,4.606 -1.755,6.747 -1.722,4.299 -5.104,5.138 -8.697,2.187 -1.788,-1.469 -3.413,-3.194 -4.875,-4.996 -16.513,-20.346 -34.326,-39.46 -53.841,-56.968 -2.492,-2.235 -4.94,-4.274 -8.404,-5.075 -5.571,-1.288 -7.732,-5.916 -5.201,-11.123 2.863,-5.888 7.55,-10.161 13.481,-12.826 4.188,-1.882 7.819,-0.068 10.834,2.916 2.822,2.794 2.503,5.828 0.492,9.06 -2.521,4.047 -2.163,8.182 0.016,12.341 4.351,8.3 10.809,14.657 18.079,20.389 15.467,12.195 36.91,9.207 45.696,-12.364 2.34,-5.744 0.86,-9.996 -5.078,-11.706 -6.733,-1.939 -13.258,-0.952 -18.818,3.634 -3.307,2.728 -4.534,6.001 -1.855,10.076 1.07,1.629 1.763,3.617 2.181,5.539 1.108,5.092 -1.518,7.42 -6.411,5.738 -3.507,-1.206 -6.513,-3.327 -9.308,-5.735 -5.471,-4.713 -5.947,-9.643 -1.37,-15.197 2.117,-2.571 4.698,-4.88 5.91,-8.005 3.675,-9.483 2.544,-17.797 -9.352,-19.892 -7.477,-1.317 -14.913,-1.297 -22.374,-0.405 -4.604,0.551 -6.923,-1.143 -7.059,-5.798 -0.103,-3.494 -0.021,-6.994 -0.021,-10.492 m -232.848,122.523 c 0.065,-2.683 -0.768,-6.036 2.299,-7.942 2.961,-1.84 5.8,-0.059 8.477,1.24 5.003,2.428 9.242,5.95 13.181,9.796 7.898,7.712 7.789,13.087 -0.233,20.622 -5.733,5.386 -12.681,9.171 -18.709,14.165 -15.862,13.141 -33.671,24.24 -45.471,41.7 -5.715,8.458 -13.682,5.807 -16.316,-2.256 -1.757,-5.377 -5.042,-9.641 -9.09,-13.511 -6.502,-6.215 -12.935,-12.511 -19.172,-18.99 -6.086,-6.321 -5.06,-11.822 2.908,-15.706 3.335,-1.625 6.325,-3.615 9.199,-5.901 17.606,-14.006 30.616,-31.872 42.54,-50.64 3.014,-4.745 4.257,-5.209 8.544,-1.876 4.629,3.599 8.88,7.785 11.815,12.791 3.742,6.388 4.66,13.489 1.868,20.638 -0.574,1.471 -1.455,3.236 -3.468,3.141 -1.735,-0.083 -2.344,-1.702 -3.012,-3.026 -0.445,-0.883 -0.986,-1.849 -1.013,-2.792 -0.116,-3.96 -1.982,-4.426 -5.217,-3.001 -19.744,8.703 -32.818,23.448 -39.413,43.877 -2.024,6.271 1.227,12.552 7.378,15.777 5.171,2.712 8.808,1.714 13.859,-4.03 1.639,-1.863 3.132,-3.896 4.422,-6.015 2.062,-3.389 0.842,-6.023 -2.326,-7.976 -1.76,-1.086 -3.785,-1.182 -5.759,-1.48 -6.518,-0.986 -8.108,-3.309 -5.908,-9.532 1.84,-5.204 3.984,-10.762 10.038,-12.18 6.133,-1.437 9.667,3.054 13.151,7.269 4.049,4.898 9.105,5.792 14.769,2.971 8.155,-4.063 12.216,-11.348 11.357,-20.397 -0.204,-2.156 -0.445,-4.308 -0.698,-6.736 m 178.291,-27.039 c 0,-1.832 -0.151,-3.679 0.027,-5.493 0.679,-6.908 4.259,-11.628 9.459,-12.66 6.584,-1.308 12.721,1.56 16.09,7.462 0.954,1.671 1.865,3.506 0.349,5.073 -5.633,5.823 -3.621,12.524 -1.854,18.817 2.944,10.492 3.236,20.683 -1.36,30.696 -1.041,2.268 -0.222,2.878 1.715,3.39 3.693,0.977 7.404,1.917 11.027,3.113 12.299,4.059 21.227,16.101 21.576,28.925 0.503,18.541 -9.007,33.117 -27.491,40.494 -7.406,2.955 -13.123,6.747 -16.043,14.415 -1.04,2.734 -2.959,5.729 -6.574,5.104 -3.716,-0.643 -4.636,-3.99 -5.039,-7.219 -3.353,-26.902 -9.916,-52.912 -20.631,-77.897 -4.752,-11.083 -10.636,-21.004 -20.484,-28.341 -4.738,-3.528 -4.137,-6.641 1.274,-9.203 6.316,-2.99 12.728,-5.781 18.613,-9.619 2.638,-1.721 5.503,-2.682 8.335,-0.42 2.878,2.298 2.337,5.331 1.246,8.226 -1.597,4.237 -2.89,8.448 -2.55,13.092 0.969,13.259 4.352,25.902 9.754,37.98 4.48,10.014 8.002,20.492 13.564,29.981 3.488,5.949 7.346,6.06 11.883,0.817 4.025,-4.653 5.979,-10.279 7.121,-16.273 2.193,-11.502 -3.654,-20.143 -15.083,-22.034 -4.425,-0.733 -8.876,-1.333 -13.28,-2.172 -1.32,-0.251 -3.325,-0.61 -1.884,-2.893 5.062,-8.014 4.489,-16.755 3.334,-25.583 -1.209,-9.241 -2.787,-18.441 -3.094,-27.778 m -97.621,86.597 c 0.818,-14.107 8.554,-33.778 21.878,-51.305 3.285,-4.322 7.871,-6.838 13.034,-8.802 16.162,-6.148 39.353,21.202 35.466,34.76 -0.697,2.435 -1.474,5.094 -4,5.998 -2.855,1.024 -3.787,-2.069 -5.476,-3.474 -0.764,-0.635 -1.38,-1.445 -2.088,-2.151 -7.483,-7.467 -16.494,-7.542 -23.711,0.024 -5.69,5.964 -9.905,12.946 -13.045,20.555 -1.031,2.497 -1.835,5.225 0.334,7.49 2.014,2.103 4.705,2.318 7.45,1.624 5.566,-1.409 10.628,-3.934 15.173,-7.378 3.75,-2.843 6.834,-2.046 9.513,1.3 4.159,5.197 4.936,11.259 3.458,17.498 -1.033,4.356 -4.995,6.559 -8.911,4.516 -7.762,-4.048 -13.458,-0.721 -18.882,4.232 -7.823,7.142 -5.829,15.755 4.337,19.019 6.903,2.216 12.813,-0.317 18.192,-4.311 5.258,-3.902 10.672,-7.433 17.016,-9.243 8.504,-2.424 17.775,1.166 21.689,8.27 3.029,5.496 2.015,9.444 -3.835,11.554 -4.934,1.778 -8.63,4.809 -12.071,8.496 -2.85,3.053 -6.091,5.679 -9.599,7.957 -12.813,8.317 -25.457,8.091 -37.427,-1.451 -18.279,-14.575 -29.035,-33.151 -28.495,-65.178 m -83.014,-314.437 c -0.696,-0.283 -1.786,-0.676 -2.835,-1.161 -26.577,-12.275 -53.331,-24.081 -82.052,-30.608 -8.757,-1.99 -17.559,-3.797 -26.267,-5.983 -8.252,-2.071 -9.74,-4.965 -6.409,-12.481 2.22,-5.007 4.795,-9.886 7.565,-14.614 15.54,-26.535 36.136,-48.943 57.823,-70.443 1.389,-1.378 2.761,-3.169 5.124,-2.011 2.263,1.11 2.588,3.18 2.635,5.481 0.245,12.17 1.151,24.208 5.467,35.81 2.063,5.544 0.937,6.649 -5.031,6.678 -1.333,0.006 -2.667,-0.027 -3.997,0.023 -11.717,0.44 -21.751,4.648 -29.44,13.648 -3.933,4.604 -3.315,7.319 1.856,10.22 7.545,4.232 15.07,8.503 22.697,12.584 15.736,8.421 31.93,15.681 49.444,19.723 7.034,1.624 14.269,0.88 21.268,2.399 3.332,0.724 6.773,1.888 7.689,5.508 0.923,3.648 -2.149,5.846 -4.629,7.64 -5.983,4.328 -11.404,9.161 -15.879,15.053 -1.125,1.482 -2.53,2.68 -5.029,2.534 m 64.065,393.508 c -18.7,-1.535 -39.505,-4.392 -57.601,-17.187 -10.229,-7.233 -19.538,-15.775 -32.192,-19.491 -7.418,-2.178 -8.432,-13.7 -2.664,-21.078 5.822,-7.447 13.463,-12.881 21.389,-17.82 3.268,-2.037 7.25,-5.398 10.94,-2.791 3.697,2.611 2.225,7.511 1.912,11.656 -0.549,7.272 -2.966,14.393 -1.836,21.791 0.349,2.278 0.486,4.894 3.16,5.772 2.721,0.893 4.847,-0.676 6.694,-2.437 4.168,-3.974 6.821,-8.999 9.418,-14.036 6.618,-12.837 9.387,-26.956 13.614,-40.6 2.818,-9.094 4.48,-17.98 1.531,-27.384 -1.24,-3.957 1.036,-6.943 5.062,-7.463 8.418,-1.089 16.852,-2.051 25.289,-2.983 2.8,-0.309 5.876,-0.859 7.424,2.459 1.418,3.041 -0.158,5.598 -2.046,7.741 -2.536,2.876 -4.896,5.778 -6.795,9.172 -13.591,24.29 -21.418,50.415 -25.194,77.866 -0.582,4.233 -2.252,9.571 2.691,11.473 4.9,1.885 8.185,-2.614 10.681,-6.401 2.741,-4.159 4.98,-8.647 7.595,-12.895 2.004,-3.254 5.033,-4.805 8.9,-4.305 3.693,0.477 5.984,2.67 7.089,6.172 2.05,6.499 4.259,12.952 6.117,19.504 4.929,17.386 -0.501,24.121 -21.178,23.265 m -29.073,-442.141 c -27.249,-2.172 -52.146,-15.124 -66.798,-43.637 -9.721,-18.918 -9.408,-38.239 2.672,-56.453 9.771,-14.733 23.547,-22.145 41.393,-21.472 19.865,0.749 32.265,12.523 41.588,28.556 2.216,3.81 3.73,8.522 -0.383,11.894 -4.164,3.413 -7.695,-0.228 -11.094,-2.496 -0.692,-0.461 -1.333,-0.999 -1.979,-1.524 -5.037,-4.094 -10.811,-6.449 -17.201,-7.453 -13.667,-2.15 -28.165,4.828 -32.729,15.816 -4.476,10.773 -1.576,24.229 7.287,32.66 6.612,6.29 14.482,10.584 23.103,13.483 3.849,1.294 7.821,1.751 11.777,0.505 5.678,-1.789 6.559,-6.01 2.154,-9.95 -3.887,-3.476 -3.694,-13.076 0.302,-16.377 1.007,-0.832 2.129,-0.875 3.299,-0.682 11.163,1.84 22.36,3.525 33.269,6.635 3.054,0.871 5.237,2.774 6.35,5.84 3.533,9.732 -1.592,28.299 -9.74,34.823 -8.54,6.837 -18.459,9.664 -33.27,9.832 m -144.48,117.118 c -6.782,0 -12.613,-10e-4 -18.443,0 -5.831,10e-4 -11.662,0.035 -17.492,-0.004 -7.394,-0.049 -9.726,-2.265 -9.174,-9.673 0.721,-9.668 2.982,-18.983 6.872,-27.964 5.507,-12.714 16.186,-13.191 26.212,-11.226 3.544,0.696 4.985,3.03 3.355,6.725 -1.23,2.789 -2.994,5.169 -4.957,7.448 -5.565,6.463 -4.605,9.843 3.515,12.339 1.112,0.342 2.254,0.615 3.401,0.817 19.874,3.473 39.824,6.136 60.074,5.314 7.185,-0.291 14.276,-1.306 20.914,-4.242 5.674,-2.511 7.987,-6.204 7.36,-11.152 -1.793,-14.154 -22.854,-23.565 -34.641,-15.534 -3.518,2.397 -4.953,5.27 -2.99,9.328 1.23,2.543 2.403,5.118 3.711,7.621 1.422,2.722 0.876,4.683 -1.848,6.195 -6.571,3.646 -13.385,3.911 -20.181,1.079 -7.481,-3.117 -9.374,-8.183 -5.83,-15.608 2.198,-4.606 2.353,-8.89 -0.127,-13.325 -2.675,-4.782 -6.788,-7.768 -11.956,-9.156 -11.621,-3.121 -22.738,-1.285 -33.462,3.818 -2.051,0.977 -4.216,2.715 -6.477,0.883 -2.254,-1.827 -1.901,-4.519 -1.201,-6.955 3.473,-12.089 9.102,-23.2 15.726,-33.823 2.132,-3.42 4.881,-3.862 7.708,-0.703 3.044,3.399 6.709,5.939 10.648,8.167 31.231,17.663 64.888,24.933 100.577,23.573 0.806,-0.031 1.655,0.174 2.431,0.429 5.251,1.726 7.486,5.398 5.811,11.461 -5.5,19.901 -9.045,39.92 -5.587,60.624 0.48,2.873 -0.919,4.114 -3.711,3.581 -5.39,-1.03 -10.746,-2.233 -16.137,-3.253 -28.105,-5.322 -56.591,-5.882 -84.101,-6.784 m 257.965,158.294 c 0.314,3.612 -2.141,4.49 -4.948,4.938 -20.445,3.269 -40.899,6.482 -61.333,9.816 -2.756,0.45 -4.893,-0.022 -6.534,-2.314 -2.262,-0.063 -4.939,1.417 -6.379,-1.712 -2.405,-1.342 -1.917,-3.651 -1.871,-5.766 0.315,-14.47 1.939,-28.844 3.292,-43.236 1.445,-15.353 4.395,-30.257 13.456,-43.252 1.957,-2.805 0.733,-3.613 -2.199,-3.878 -6.332,-0.573 -12.334,-2.518 -18.216,-4.866 -1.181,-0.472 -2.389,-1.891 -3.639,-0.94 -1.354,1.029 -0.725,2.797 -0.446,4.201 1.407,7.073 1.262,14.239 1.157,21.368 -0.302,20.387 -6.527,39.53 -12.82,58.62 -2.547,7.728 -5.531,15.326 -9.538,22.435 -1.392,2.469 -2.933,5.795 -6.851,2.961 -2.232,1.283 -3.949,0.21 -5.589,-1.219 -2.009,0.707 -3.549,-0.329 -5.04,-1.411 -18.024,-13.084 -36.053,-26.159 -54.037,-39.297 -2.181,-1.593 -5.188,-2.903 -3.899,-6.626 -0.67,-1.102 -1.339,-2.204 -2.009,-3.306 -1.856,-2.554 -2.332,-5.029 0.013,-7.654 13.188,-14.76 25.707,-30.101 41.298,-42.608 11.326,-9.084 23.865,-14.946 37.971,-17.785 1.049,-0.211 2.352,-0.064 2.763,-1.9 -5.987,-3.598 -9.631,-9.338 -13.076,-15.251 -0.758,-1.3 -1.633,-2.747 -3.265,-2.829 -2.058,-0.104 -1.943,1.924 -2.495,3.195 -7.149,16.483 -19.38,28.569 -35.079,36.238 -24.039,11.747 -48.764,22.092 -73.222,32.978 -2.656,1.183 -5.466,2.004 -7.361,-1.394 -2.439,0.601 -4.925,1.638 -7.048,-0.747 -4.477,-3.14 -5.485,-8.285 -6.862,-12.939 -6.747,-22.797 -12.588,-45.863 -20.137,-68.423 -1.401,-4.188 2.939,-7.163 1.821,-11.257 -0.197,-0.721 1.594,-1.503 2.843,-1.536 1.83,-0.048 3.663,-0.156 5.492,-0.118 34.813,0.73 69.624,1.527 104.439,2.196 11.25,0.217 21.684,3.256 31.441,8.634 2.192,1.209 3.894,1.214 6.042,0.329 14.308,-5.895 28.632,-11.753 42.993,-17.518 1.95,-0.784 2.763,-1.782 3.02,-3.933 0.905,-7.595 2.08,-15.157 3.193,-22.727 5.52,-37.532 11.053,-75.062 16.579,-112.594 0.317,-2.15 0.433,-4.209 -0.477,-6.353 -13.01,-30.632 -25.925,-61.304 -38.934,-91.935 -2.515,-5.92 -2.878,-11.785 0.878,-17.108 3.774,-5.348 9.479,-5.421 15.374,-4.372 14.57,2.592 29.161,5.071 43.74,7.615 19.01,3.318 38.033,6.559 57.015,10.034 6.453,1.182 12.202,3.941 14.415,10.802 2.208,6.841 -0.882,12.097 -5.389,17.09 -20.989,23.251 -41.822,46.643 -62.751,69.948 -1.719,1.915 -2.797,3.866 -3.158,6.533 -2.211,16.315 -4.52,32.618 -7.011,48.893 -4.629,30.273 -8.287,60.667 -11.91,91.069 -0.394,3.31 0.362,5.185 3.087,6.988 10.993,7.273 21.267,15.503 31.073,24.297 1.965,1.761 3.673,2.069 6.241,1.559 11.916,-2.367 23.478,-1.233 34.655,3.859 12.298,5.604 23.921,12.424 35.562,19.219 2.233,1.304 5.305,2.895 3.973,6.02 -1.507,3.535 -4.33,0.217 -6.562,0.335 -0.165,0.009 -0.332,-0.025 -0.498,-0.038 l -0.178,2.417 c 4.396,0.88 4.946,3.848 3.128,7.086 -8.467,15.072 -16.854,30.206 -25.885,44.94 -4.498,7.339 -8.28,6.978 -13.476,0.195 -9.508,-12.413 -18.846,-24.964 -28.676,-37.117 -4.436,-5.483 -7.072,-11.517 -8.921,-18.146 -1.286,-4.612 -0.802,-9.43 -1.786,-15.202 -5.704,6.204 -11.628,10.528 -18.284,13.993 -2.935,1.528 0.155,2.399 1.295,3.003 7.543,3.987 13.662,9.579 17.916,16.908 10.219,17.606 17.633,36.454 23.885,55.774 0.807,2.491 1.66,5.202 -0.918,7.372 0.421,2.031 0.35,3.939 -1.343,5.449 m -61.827,-427.231 c -57.895,0.795 -110.407,22.344 -155.314,62.455 -48.26,43.107 -77.628,97.473 -92.842,159.854 -8.381,34.371 -11.534,69.314 -8.858,104.594 6.273,82.693 35.518,155.324 96.088,213.494 34.41,33.046 75.073,54.939 122.29,63.589 61.134,11.201 117.57,-1.473 169.103,-35.476 C -27.157,212.326 8.319,162.547 30.46,102.846 46.4,59.863 53.388,15.275 51.258,-30.457 47.661,-107.705 23.22,-177.239 -28.453,-235.805 c -36.878,-41.798 -82.349,-69.609 -137.426,-80.715 -14.076,-2.837 -28.325,-4.11 -45.376,-4.277"
             style="fill:#e8c31d;fill-opacity:1;fill-rule:evenodd;stroke:none"
             id="path22"
             inkscape:connector-curvature="0" /></g><g
           id="g24"
           transform="translate(367.9292,91.1963)"><path
             d="m 0,0 c -3.886,-0.191 -3.546,2.104 -2.401,4.822 4.069,9.656 8.16,19.302 12.222,28.96 5.288,12.572 10.544,25.158 15.842,37.726 2.243,5.321 3.366,5.517 7.048,1.372 C 48.408,55.199 64.107,37.519 79.807,19.839 83.305,15.898 83.015,14.305 78.414,13.497 53.036,9.045 27.645,4.668 2.256,0.271 1.6,0.157 0.934,0.11 0,0"
             style="fill:#e8c31d;fill-opacity:1;fill-rule:evenodd;stroke:none"
             id="path26"
             inkscape:connector-curvature="0" /></g><g
           id="g28"
           transform="translate(373.4385,382.6396)"><path
             d="m 0,0 c 3.067,0.354 3.808,-1.127 3.406,-3.888 -1.481,-10.188 -2.83,-20.396 -4.333,-30.581 -0.178,-1.207 0.036,-3.104 -1.424,-3.429 -1.955,-0.435 -2.137,1.691 -2.765,2.903 -4.354,8.415 -8.558,16.91 -12.997,25.28 -1.447,2.73 -0.981,4.242 1.845,5.348 C -10.991,-2.304 -5.645,-0.548 0,0"
             style="fill:#e8c31d;fill-opacity:1;fill-rule:evenodd;stroke:none"
             id="path30"
             inkscape:connector-curvature="0" /></g><g
           id="g32"
           transform="translate(384.7183,350.7139)"><path
             d="m 0,0 c 1.232,9.632 2.262,18.015 3.398,26.382 0.377,2.773 2.25,3.169 4.395,2.002 4.557,-2.482 8.516,-5.818 12.392,-9.229 1.69,-1.488 1.11,-3.043 -0.41,-4.207 C 13.591,10.212 7.352,5.546 0,0"
             style="fill:#e8c31d;fill-opacity:1;fill-rule:evenodd;stroke:none"
             id="path34"
             inkscape:connector-curvature="0" /></g><g
           id="g36"
           transform="translate(342.0151,367.9375)"><path
             d="m 0,0 c 1.229,0.094 1.528,-0.954 1.986,-1.792 3.342,-6.114 6.667,-12.238 10.019,-18.347 1.044,-1.902 0.696,-3.178 -1.588,-2.323 -7.139,2.672 -14.187,5.587 -21.251,8.455 -1.018,0.413 -1.671,1.226 -0.69,2.281 3.502,3.771 7.039,7.509 10.58,11.243 C -0.731,-0.259 -0.365,-0.181 0,0"
             style="fill:#e8c31d;fill-opacity:1;fill-rule:evenodd;stroke:none"
             id="path38"
             inkscape:connector-curvature="0" /></g><g
           id="g40"
           transform="translate(227.9272,485.0869)"><path
             d="m 0,0 c 2.064,0.426 4.313,-1.388 5.711,-4.319 1.741,-3.656 2.978,-7.369 0.388,-11.3 -5.055,-7.67 -9.686,-9.027 -17.868,-5.032 -3.731,1.82 -7.503,3.562 -11.189,5.47 -4.088,2.117 -4.388,5.029 -0.439,7.38 C -16.657,-3.786 -9.434,-0.884 0,0"
             style="fill:#e8c31d;fill-opacity:1;fill-rule:evenodd;stroke:none"
             id="path42"
             inkscape:connector-curvature="0" /></g><g
           id="g44"
           transform="translate(191.4937,494.8193)"><path
             d="m 0,0 c 5.444,-0.082 8.117,-3.505 6.896,-8.265 -1.135,-4.427 -3.553,-8.267 -6.53,-11.563 -3.574,-3.957 -6.986,0.187 -10.303,1.12 -2.938,0.825 -1.721,3.449 -1.057,5.438 1.212,3.63 3.166,6.892 5.216,10.101 C -4.29,-0.84 -2.164,0.12 0,0"
             style="fill:#e8c31d;fill-opacity:1;fill-rule:evenodd;stroke:none"
             id="path46"
             inkscape:connector-curvature="0" /></g></g></g><g
       id="g48"><g
         id="g50"
         clip-path="url(#clipPath52)"><g
           id="g56"
           transform="translate(354.498,646.7227)"><path
             d="m 0,0 c 20.678,0.855 26.107,-5.879 21.178,-23.265 -1.858,-6.552 -4.067,-13.006 -6.117,-19.505 -1.104,-3.501 -3.395,-5.694 -7.088,-6.171 -3.868,-0.5 -6.896,1.051 -8.9,4.305 -2.615,4.248 -4.855,8.736 -7.596,12.895 -2.496,3.787 -5.781,8.286 -10.681,6.401 -4.943,-1.902 -3.273,-7.24 -2.691,-11.473 3.776,-27.451 11.603,-53.576 25.194,-77.866 1.899,-3.394 4.26,-6.296 6.795,-9.173 1.888,-2.142 3.464,-4.699 2.046,-7.74 -1.547,-3.318 -4.624,-2.768 -7.423,-2.459 -8.437,0.932 -16.872,1.894 -25.289,2.983 -4.027,0.52 -6.303,3.505 -5.063,7.463 2.949,9.404 1.287,18.29 -1.531,27.384 -4.227,13.644 -6.996,27.763 -13.614,40.6 -2.596,5.037 -5.25,10.061 -9.418,14.036 -1.846,1.761 -3.972,3.33 -6.694,2.437 -2.674,-0.878 -2.811,-3.495 -3.159,-5.772 -1.131,-7.398 1.286,-14.519 1.836,-21.791 0.313,-4.145 1.785,-9.045 -1.912,-11.656 -3.69,-2.607 -7.672,0.754 -10.941,2.791 -7.926,4.939 -15.567,10.373 -21.389,17.82 -5.768,7.378 -4.754,18.9 2.665,21.078 12.653,3.716 21.962,12.258 32.191,19.491 C -39.504,-4.392 -18.7,-1.535 0,0"
             style="fill:#46413a;fill-opacity:1;fill-rule:evenodd;stroke:none"
             id="path58"
             inkscape:connector-curvature="0" /></g><g
           id="g60"
           transform="translate(373.4478,567.6514)"><path
             d="m 0,0 c -0.541,32.027 10.216,50.604 28.495,65.178 11.97,9.543 24.613,9.768 37.427,1.451 3.508,-2.277 6.749,-4.903 9.599,-7.957 3.441,-3.687 7.136,-6.718 12.071,-8.496 5.849,-2.11 6.864,-6.058 3.835,-11.554 -3.914,-7.103 -13.186,-10.694 -21.69,-8.269 -6.343,1.809 -11.758,5.34 -17.015,9.243 -5.379,3.993 -11.289,6.526 -18.193,4.31 -10.166,-3.263 -12.16,-11.877 -4.337,-19.019 5.424,-4.952 11.121,-8.28 18.882,-4.232 3.916,2.043 7.878,-0.16 8.911,-4.515 C 59.464,9.9 58.687,3.838 54.527,-1.358 51.849,-4.705 48.765,-5.502 45.015,-2.659 40.47,0.785 35.407,3.311 29.842,4.719 27.097,5.413 24.405,5.198 22.392,3.095 20.223,0.83 21.026,-1.897 22.058,-4.395 c 3.139,-7.609 7.355,-14.59 13.045,-20.555 7.216,-7.566 16.228,-7.49 23.71,-0.024 0.708,0.706 1.325,1.516 2.088,2.151 1.69,1.405 2.621,4.498 5.477,3.474 2.525,-0.904 3.303,-3.563 4,-5.998 3.887,-13.557 -19.305,-40.908 -35.467,-34.759 -5.162,1.963 -9.748,4.479 -13.033,8.801 C 8.554,-33.777 0.817,-14.106 0,0"
             style="fill:#46413a;fill-opacity:1;fill-rule:evenodd;stroke:none"
             id="path62"
             inkscape:connector-curvature="0" /></g><g
           id="g64"
           transform="translate(471.0688,481.0547)"><path
             d="m 0,0 c 0.307,9.337 1.885,18.537 3.094,27.778 1.155,8.827 1.727,17.569 -3.334,25.583 -1.442,2.283 0.563,2.642 1.884,2.893 4.404,0.839 8.854,1.439 13.28,2.172 11.429,1.89 17.275,10.532 15.083,22.034 -1.143,5.994 -3.097,11.62 -7.121,16.272 -4.537,5.244 -8.396,5.133 -11.883,-0.816 C 5.44,86.427 1.919,75.949 -2.562,65.935 c -5.402,-12.079 -8.785,-24.721 -9.753,-37.98 -0.34,-4.644 0.953,-8.855 2.549,-13.092 1.091,-2.895 1.632,-5.928 -1.246,-8.226 -2.832,-2.262 -5.696,-1.301 -8.335,0.42 -5.884,3.838 -12.297,6.629 -18.612,9.619 -5.411,2.562 -6.013,5.675 -1.274,9.203 9.847,7.337 15.732,17.258 20.484,28.341 10.715,24.985 17.277,50.995 20.631,77.897 0.402,3.229 1.322,6.576 5.039,7.219 3.614,0.625 5.533,-2.37 6.573,-5.105 2.92,-7.668 8.638,-11.46 16.043,-14.415 C 48.021,112.439 57.531,97.864 57.028,79.323 56.68,66.499 47.752,54.457 35.452,50.397 31.829,49.202 28.118,48.262 24.426,47.285 22.488,46.772 21.67,46.163 22.711,43.895 27.307,33.882 27.015,23.69 24.07,13.199 22.304,6.906 20.292,0.205 25.925,-5.618 c 1.515,-1.568 0.604,-3.403 -0.35,-5.073 -3.369,-5.902 -9.506,-8.77 -16.09,-7.462 -5.2,1.032 -8.78,5.752 -9.459,12.66 C -0.151,-3.679 0,-1.832 0,0"
             style="fill:#46413a;fill-opacity:1;fill-rule:evenodd;stroke:none"
             id="path66"
             inkscape:connector-curvature="0" /></g><g
           id="g68"
           transform="translate(292.7778,508.0937)"><path
             d="m 0,0 c 0.252,2.428 0.493,4.58 0.698,6.735 0.858,9.05 -3.202,16.334 -11.358,20.398 -5.663,2.821 -10.72,1.927 -14.768,-2.971 -3.485,-4.215 -7.018,-8.706 -13.152,-7.269 -6.053,1.418 -8.197,6.976 -10.037,12.18 -2.2,6.223 -0.61,8.546 5.908,9.531 1.974,0.298 3.999,0.395 5.759,1.481 3.167,1.953 4.388,4.587 2.326,7.976 -1.29,2.119 -2.784,4.152 -4.423,6.015 -5.05,5.743 -8.687,6.741 -13.859,4.029 -6.15,-3.224 -9.401,-9.505 -7.377,-15.776 6.595,-20.43 19.668,-35.174 39.413,-43.877 3.234,-1.426 5.1,-0.959 5.217,3.001 0.027,0.943 0.567,1.908 1.013,2.792 0.668,1.323 1.277,2.942 3.011,3.026 2.014,0.095 2.894,-1.67 3.468,-3.141 2.792,-7.15 1.875,-14.25 -1.868,-20.638 -2.934,-5.007 -7.185,-9.192 -11.814,-12.791 -4.287,-3.333 -5.531,-2.869 -8.545,1.876 -11.923,18.768 -24.933,36.634 -42.54,50.64 -2.873,2.286 -5.864,4.276 -9.199,5.901 -7.968,3.884 -8.994,9.385 -2.907,15.706 6.237,6.479 12.67,12.775 19.171,18.989 4.048,3.871 7.334,8.135 9.091,13.512 2.633,8.063 10.601,10.714 16.316,2.256 11.8,-17.46 29.608,-28.56 45.47,-41.7 6.029,-4.994 12.976,-8.779 18.71,-14.165 8.021,-7.535 8.13,-12.91 0.232,-20.622 C 20.017,-0.752 15.779,-4.274 10.775,-6.702 8.099,-8.001 5.26,-9.782 2.299,-7.942 -0.769,-6.036 0.064,-2.684 0,0"
             style="fill:#46413a;fill-opacity:1;fill-rule:evenodd;stroke:none"
             id="path70"
             inkscape:connector-curvature="0" /></g><g
           id="g72"
           transform="translate(525.6255,385.5703)"><path
             d="m 0,0 c 0,3.498 -0.082,6.998 0.021,10.492 0.136,4.655 2.455,6.349 7.059,5.798 7.461,-0.892 14.897,-0.912 22.374,0.405 11.896,2.095 13.026,10.409 9.352,19.892 -1.212,3.125 -3.793,5.434 -5.91,8.005 -4.577,5.554 -4.101,10.484 1.37,15.197 2.795,2.408 5.8,4.529 9.308,5.735 4.893,1.682 7.519,-0.646 6.411,-5.738 -0.418,-1.922 -1.111,-3.91 -2.181,-5.539 -2.679,-4.075 -1.452,-7.348 1.855,-10.076 5.56,-4.586 12.085,-5.572 18.818,-3.634 5.938,1.71 7.418,5.962 5.078,11.706 C 64.769,73.814 43.326,76.802 27.859,64.607 20.589,58.875 14.131,52.519 9.78,44.218 7.601,40.06 7.243,35.924 9.764,31.877 11.775,28.646 12.094,25.611 9.271,22.817 6.257,19.833 2.626,18.02 -1.562,19.901 c -5.931,2.665 -10.618,6.938 -13.481,12.827 -2.531,5.207 -0.37,9.835 5.201,11.123 3.464,0.8 5.912,2.839 8.404,5.074 19.515,17.509 37.328,36.622 53.841,56.969 1.462,1.801 3.087,3.526 4.875,4.996 3.593,2.95 6.975,2.111 8.697,-2.188 0.857,-2.14 1.29,-4.471 1.754,-6.747 4.77,-23.337 16.839,-43.674 26.657,-64.935 0.557,-1.207 1.307,-2.332 1.79,-3.564 1.018,-2.6 1.508,-5.332 -0.896,-7.387 -2.289,-1.957 -5.197,-2.793 -7.871,-1.048 -5.63,3.67 -10.551,2.197 -15.764,-1.047 C 56.517,14.565 41.237,5.401 26.035,-3.889 21.06,-6.93 16.288,-10.229 12.045,-14.302 9.735,-16.52 6.808,-18.358 3.453,-16.843 0.129,-15.341 0.479,-11.996 0.474,-8.996 0.467,-5.997 0.472,-2.998 0.472,0 L 0,0 Z"
             style="fill:#46413a;fill-opacity:1;fill-rule:evenodd;stroke:none"
             id="path74"
             inkscape:connector-curvature="0" /></g><g
           id="g76"
           transform="translate(191.4937,494.8193)"><path
             d="m 0,0 c -2.164,0.12 -4.29,-0.84 -5.778,-3.169 -2.05,-3.209 -4.004,-6.471 -5.216,-10.101 -0.664,-1.989 -1.881,-4.613 1.057,-5.438 3.317,-0.933 6.729,-5.077 10.303,-1.12 2.977,3.296 5.395,7.136 6.53,11.563 C 8.117,-3.505 5.444,-0.082 0,0 M 36.434,-9.732 C 27,-10.616 19.777,-13.519 13.036,-17.533 c -3.948,-2.352 -3.649,-5.264 0.44,-7.38 3.686,-1.908 7.458,-3.65 11.189,-5.471 8.182,-3.994 12.813,-2.637 17.868,5.032 2.59,3.931 1.353,7.645 -0.388,11.3 -1.398,2.932 -3.647,4.745 -5.711,4.32 M 21.547,0.918 c 2.875,1.117 5.329,2.148 7.834,3.033 18.318,6.466 28.266,-3.736 31.829,-19.21 2.049,-8.9 -0.692,-16.468 -7.929,-22.21 -4.435,-3.518 -8.936,-6.954 -13.434,-10.393 -2.654,-2.03 -5.261,-3.994 -6.406,-7.412 -0.884,-2.64 -3.265,-3.054 -5.75,-2.947 -4.543,0.196 -7.503,3.033 -10.576,5.962 -11.726,11.175 -25.794,12.821 -40.846,9.328 -3.741,-0.868 -6.831,-3.322 -9.191,-6.564 -1.46,-2.006 -3.029,-4.032 -5.378,-5.12 -3.055,-1.415 -5.391,0.141 -5.082,3.49 0.181,1.972 0.651,3.952 1.259,5.843 5.469,16.981 12.048,33.507 20.611,49.191 2.814,5.154 6.351,9.81 10.721,13.724 9.396,8.416 21.614,6.35 27.841,-4.626 2.127,-3.749 3.516,-7.822 4.497,-12.089"
             style="fill:#46413a;fill-opacity:1;fill-rule:evenodd;stroke:none"
             id="path78"
             inkscape:connector-curvature="0" /></g><g
           id="g80"
           transform="translate(546.0386,539.9687)"><path
             d="m 0,0 c -0.345,2.052 -0.834,4.161 -1.024,6.297 -0.247,2.773 1.082,4.957 3.528,6.064 2.179,0.987 4.183,0.169 5.773,-1.687 8.443,-9.856 17.306,-19.383 23.987,-30.613 1.965,-3.304 3.691,-6.737 3.652,-10.732 -0.053,-5.47 -3.618,-8.544 -8.794,-6.99 -6.179,1.854 -10.727,-0.473 -14.723,-4.721 -15.176,-16.141 -29.189,-33.308 -43.813,-49.937 -2.649,-3.012 -3.515,-6.744 -3.509,-10.668 0.004,-2.831 -0.721,-5.224 -3.188,-6.913 -2.782,-1.905 -5.294,-2.036 -7.232,1.073 -4.075,6.535 -9.066,12.265 -14.496,17.721 -3.497,3.513 -2.262,7.804 2.569,8.496 7.562,1.081 12.014,5.81 16.161,11.43 13.156,17.834 24.451,36.902 36.706,55.331 C -1.296,-11.176 -0.838,-5.548 0,0"
             style="fill:#46413a;fill-opacity:1;fill-rule:evenodd;stroke:none"
             id="path82"
             inkscape:connector-curvature="0" /></g><g
           id="g84"
           transform="translate(137.8511,394.1104)"><path
             d="m 0,0 c 0.189,7.856 1.587,14.152 5.334,19.702 2.573,3.811 6.148,6.279 10.965,5.546 4.954,-0.755 6.45,-4.855 7.496,-8.98 2.302,-9.073 0.568,-17.519 -4.45,-25.319 -2.561,-3.979 -5.919,-7.127 -11.021,-6.303 -4.905,0.792 -6.163,5.158 -7.295,9.188 C 0.361,-3.787 0.2,-1.266 0,0"
             style="fill:#46413a;fill-opacity:1;fill-rule:evenodd;stroke:none"
             id="path86"
             inkscape:connector-curvature="0" /></g><g
           id="g88"
           transform="translate(588.3384,373.5596)"><path
             d="m 0,0 c -0.028,-5.657 -2.691,-10.775 -6.165,-11.183 -3.356,-0.393 -7.828,4.032 -9.495,9.617 -1.358,4.548 -1.474,9.182 0.236,13.658 2.267,5.934 7.428,6.631 11.421,1.626 C -0.964,9.908 -0.213,5.364 0,0"
             style="fill:#46413a;fill-opacity:1;fill-rule:evenodd;stroke:none"
             id="path90"
             inkscape:connector-curvature="0" /></g><g
           id="g92"
           transform="translate(347.6929,409.4932)"><path
             d="m 0,0 c -0.57,-0.341 -0.915,-0.71 -1.28,-0.729 -0.679,-0.039 -1.244,0.361 -1.005,1.106 0.086,0.269 0.769,0.503 1.157,0.472 C -0.795,0.821 -0.495,0.394 0,0"
             style="fill:#46413b;fill-opacity:1;fill-rule:evenodd;stroke:none"
             id="path94"
             inkscape:connector-curvature="0" /></g><g
           id="g96"
           transform="translate(396.9985,401.4551)"><path
             d="m 0,0 c -0.526,-0.758 -1.292,-0.909 -2.143,-0.85 -0.001,0 0.053,-0.06 0.053,-0.06 0.573,0.426 1.146,0.851 1.719,1.277 C -0.245,0.246 -0.122,0.124 0,0"
             style="fill:#838b7b;fill-opacity:1;fill-rule:evenodd;stroke:none"
             id="path98"
             inkscape:connector-curvature="0" /></g><g
           id="g100"
           transform="translate(414.9214,421.5449)"><path
             d="m 0,0 c 0.135,-0.878 -0.084,-1.614 -0.854,-2.13 -0.128,0.117 -0.257,0.237 -0.383,0.357 0.151,0.762 0.352,1.496 1.176,1.828 L 0,0 Z"
             style="fill:#838b7b;fill-opacity:1;fill-rule:evenodd;stroke:none"
             id="path102"
             inkscape:connector-curvature="0" /></g><g
           id="g104"
           transform="translate(417.0073,424.4756)"><path
             d="m 0,0 c -0.091,-0.799 -0.283,-1.539 -1.108,-1.912 l -0.031,0.027 c -0.101,0.85 0,1.625 0.791,2.146 L 0,0 Z"
             style="fill:#838b7b;fill-opacity:1;fill-rule:evenodd;stroke:none"
             id="path106"
             inkscape:connector-curvature="0" /></g><g
           id="g108"
           transform="translate(415.8989,422.5635)"><path
             d="m 0,0 c -0.327,-0.339 -0.653,-0.678 -0.979,-1.018 0.001,-10e-4 -0.059,0.054 -0.059,0.054 0.336,0.33 0.672,0.661 1.008,0.991 L 0,0 Z"
             style="fill:#838b7b;fill-opacity:1;fill-rule:evenodd;stroke:none"
             id="path110"
             inkscape:connector-curvature="0" /></g></g></g><g
       id="g112"><g
         id="g114"
         clip-path="url(#clipPath116)"><g
           id="g120"
           transform="translate(377.083,52.7627)"><path
             d="m 0,0 c 17.051,0.167 31.3,1.439 45.376,4.277 55.078,11.106 100.548,38.917 137.426,80.715 51.673,58.566 76.115,128.1 79.711,205.348 2.13,45.732 -4.857,90.32 -20.798,133.303 -22.14,59.701 -57.617,109.48 -111.248,144.867 -51.533,34.003 -107.968,46.677 -169.102,35.476 -47.218,-8.65 -87.881,-30.544 -122.291,-63.59 -60.57,-58.169 -89.814,-130.8 -96.088,-213.493 -2.676,-35.28 0.477,-70.223 8.859,-104.594 15.213,-62.381 44.582,-116.747 92.842,-159.854 C -110.406,22.344 -57.895,0.795 0,0 m -273.813,315.181 c 1.011,70.246 23.364,144.358 74.139,208.562 37.776,47.767 85.515,81.539 145.269,95.81 78.646,18.784 149.556,0.476 212.416,-49.074 52.989,-41.767 86.386,-97.006 105.625,-161.122 13.203,-44.001 17.921,-89.06 14.01,-134.81 C 270.925,195.931 243.697,125.699 189.872,67.048 151.674,25.426 105.206,-2.835 49.479,-13.856 c -63.802,-12.619 -123.484,-0.54 -178.331,34.145 -55.53,35.117 -93.373,85.002 -118.156,145.208 -18.275,44.394 -26.743,90.8 -26.805,149.684"
             style="fill:#46413b;fill-opacity:1;fill-rule:evenodd;stroke:none"
             id="path122"
             inkscape:connector-curvature="0" /></g></g></g><g
       id="g124"><g
         id="g126"
         clip-path="url(#clipPath128)"><g
           id="g132"
           transform="translate(180.9458,321.6992)"><path
             d="m 0,0 c 27.509,0.902 55.995,1.462 84.101,6.784 5.391,1.021 10.747,2.224 16.136,3.253 2.793,0.533 4.191,-0.708 3.711,-3.581 -3.458,-20.704 0.088,-40.723 5.587,-60.624 1.675,-6.062 -0.56,-9.734 -5.811,-11.461 -0.776,-0.255 -1.625,-0.46 -2.43,-0.429 -35.69,1.361 -69.347,-5.91 -100.578,-23.573 -3.939,-2.227 -7.604,-4.767 -10.647,-8.167 -2.828,-3.159 -5.577,-2.717 -7.709,0.703 -6.623,10.623 -12.252,21.735 -15.726,33.824 -0.699,2.435 -1.052,5.127 1.201,6.955 2.261,1.832 4.426,0.093 6.478,-0.883 10.724,-5.104 21.84,-6.94 33.462,-3.819 5.167,1.388 9.281,4.374 11.955,9.157 2.481,4.434 2.326,8.718 0.128,13.324 -3.545,7.426 -1.651,12.491 5.83,15.608 6.795,2.832 13.609,2.568 20.181,-1.079 2.724,-1.512 3.27,-3.472 1.847,-6.195 -1.308,-2.503 -2.481,-5.077 -3.711,-7.62 -1.962,-4.059 -0.527,-6.932 2.99,-9.328 11.787,-8.032 32.849,1.38 34.642,15.534 0.627,4.947 -1.687,8.64 -7.36,11.151 -6.639,2.937 -13.729,3.951 -20.914,4.242 -20.25,0.823 -40.201,-1.84 -60.075,-5.314 -1.146,-0.201 -2.288,-0.475 -3.4,-0.816 -8.12,-2.497 -9.081,-5.876 -3.515,-12.339 1.963,-2.28 3.726,-4.66 4.957,-7.449 1.629,-3.695 0.189,-6.029 -3.356,-6.724 -10.026,-1.966 -20.704,-1.488 -26.211,11.225 -3.89,8.982 -6.151,18.296 -6.872,27.964 -0.553,7.408 1.779,9.624 9.173,9.673 C -30.105,0.035 -24.274,0.001 -18.444,0 -12.613,-0.001 -6.783,0 0,0"
             style="fill:#04822b;fill-opacity:1;fill-rule:evenodd;stroke:none"
             id="path134"
             inkscape:connector-curvature="0" /></g><g
           id="g136"
           transform="translate(325.4253,204.582)"><path
             d="m 0,0 c 14.812,-0.169 24.73,-2.995 33.27,-9.832 8.148,-6.524 13.273,-25.092 9.74,-34.823 -1.113,-3.067 -3.296,-4.969 -6.35,-5.84 -10.909,-3.11 -22.106,-4.795 -33.269,-6.636 -1.17,-0.192 -2.292,-0.149 -3.299,0.683 -3.996,3.301 -4.189,12.9 -0.302,16.377 4.405,3.939 3.524,8.161 -2.154,9.95 -3.956,1.246 -7.928,0.789 -11.777,-0.505 -8.621,-2.899 -16.491,-7.193 -23.103,-13.483 -8.862,-8.431 -11.763,-21.887 -7.287,-32.661 4.564,-10.988 19.062,-17.965 32.729,-15.816 6.39,1.005 12.164,3.359 17.201,7.453 0.646,0.526 1.288,1.064 1.979,1.525 3.399,2.267 6.93,5.909 11.094,2.496 4.113,-3.372 2.599,-8.084 0.383,-11.895 -9.323,-16.032 -21.723,-27.806 -41.588,-28.556 -17.846,-0.672 -31.621,6.74 -41.393,21.472 -12.08,18.214 -12.393,37.535 -2.672,56.453 C -52.146,-15.124 -27.249,-2.173 0,0"
             style="fill:#04822b;fill-opacity:1;fill-rule:evenodd;stroke:none"
             id="path138"
             inkscape:connector-curvature="0" /></g><g
           id="g140"
           transform="translate(290.4336,253.2148)"><path
             d="m 0,0 c 2.499,0.146 3.903,-1.053 5.028,-2.534 4.475,-5.892 9.896,-10.726 15.88,-15.053 2.48,-1.794 5.552,-3.992 4.629,-7.641 -0.916,-3.62 -4.357,-4.784 -7.689,-5.507 -6.999,-1.519 -14.234,-0.776 -21.268,-2.4 -17.514,-4.042 -33.708,-11.302 -49.444,-19.722 -7.627,-4.081 -15.153,-8.352 -22.698,-12.584 -5.17,-2.901 -5.788,-5.617 -1.855,-10.22 7.688,-9 17.723,-13.208 29.439,-13.649 1.331,-0.049 2.665,-0.016 3.998,-0.022 5.968,-0.029 7.094,-1.134 5.031,-6.679 -4.317,-11.601 -5.222,-23.639 -5.468,-35.809 -0.046,-2.301 -0.372,-4.371 -2.634,-5.481 -2.363,-1.158 -3.735,0.633 -5.124,2.011 -21.687,21.5 -42.283,43.908 -57.824,70.442 -2.77,4.729 -5.344,9.608 -7.564,14.615 -3.331,7.515 -1.843,10.41 6.409,12.481 8.708,2.186 17.51,3.993 26.267,5.982 28.721,6.528 55.474,18.333 82.052,30.609 C -1.787,-0.677 -0.696,-0.283 0,0"
             style="fill:#04822b;fill-opacity:1;fill-rule:evenodd;stroke:none"
             id="path142"
             inkscape:connector-curvature="0" /></g><g
           id="g144"
           transform="translate(529.0229,252.0664)"><path
             d="m 0,0 c 6.201,-4.088 12.441,-8.118 18.594,-12.278 7.858,-5.316 15.609,-10.789 23.475,-16.093 5.641,-3.804 11.296,-4.852 16.755,0.48 0.696,0.679 1.658,1.109 2.543,1.565 1.966,1.014 4.144,1.951 6.15,0.621 2.199,-1.459 1.611,-3.975 0.997,-5.967 -2.427,-7.863 -6.228,-15.105 -11.422,-21.453 -3.468,-4.239 -8.452,-4.479 -13.526,-1.345 -4.754,2.939 -8.498,7.026 -11.748,11.452 -13.121,17.871 -29.349,32.153 -48.71,42.914 -1.307,0.727 -2.519,1.622 -3.805,2.389 -3.802,2.269 -4.243,4.879 -1.628,8.616 8.381,11.974 15.354,14.69 31.076,11.308 13.16,-2.831 26.087,-6.772 39.52,-8.296 3.473,-0.393 6.954,-0.862 10.453,-0.292 0.805,0.131 1.786,0.345 1.675,1.372 -0.054,0.509 -0.715,1.152 -1.251,1.374 -2.453,1.02 -4.913,2.063 -7.452,2.826 -16.475,4.958 -33.257,8.266 -50.469,9.236 -7.366,0.415 -9.487,3.07 -8.255,10.274 0.305,1.791 0.864,3.562 1.499,5.269 3.054,8.211 4.938,8.559 11.716,3.007 8.947,-7.326 19.907,-10.665 30.545,-14.421 13.414,-4.737 27.15,-7.975 41.602,-5.917 3.753,0.534 5.065,-1.892 5.189,-5.122 C 84.119,6.056 70.068,-8.867 54.364,-9.705 43.204,-10.3 32.56,-7.791 21.949,-4.846 14.782,-2.856 7.582,-0.981 0.397,0.944 0.265,0.63 0.133,0.315 0,0"
             style="fill:#04822b;fill-opacity:1;fill-rule:evenodd;stroke:none"
             id="path146"
             inkscape:connector-curvature="0" /></g><g
           id="g148"
           transform="translate(516.1733,150.5479)"><path
             d="m 0,0 c 0.175,2.313 -0.619,4.809 -1.702,7.294 -1.118,2.569 -1.345,5.408 0.678,7.515 2.185,2.276 4.397,0.07 6.3,-0.943 6.312,-3.358 12.345,-7.19 18.901,-10.158 6.004,-2.719 6.486,-7.442 1.688,-12.999 -11.961,-13.855 -26.09,-25.206 -41.292,-35.274 -2.769,-1.834 -5.575,-3.725 -8.605,-5.029 -6.32,-2.719 -10.13,-0.973 -12.47,5.516 -2.83,7.849 -3.254,16.279 -5.859,24.225 -6.188,18.869 -12.643,37.551 -24.69,53.734 -4.424,5.942 -9.592,11.036 -15.394,15.584 -1.918,1.503 -4.133,3.105 -3.082,6.198 0.95,2.797 3.57,2.887 5.756,3.168 8.839,1.136 16.654,4.466 23.42,10.259 2.341,2.003 4.953,2.86 7.799,1.305 2.677,-1.463 2.619,-4.04 2.12,-6.604 -2.519,-12.948 0.207,-25.207 5.178,-37.056 6.774,-16.144 14.848,-31.624 24.267,-46.412 1.926,-3.024 3.171,-3.301 5.953,-1.069 C -3.913,-15.039 -0.063,-8.306 0,0"
             style="fill:#04822b;fill-opacity:1;fill-rule:evenodd;stroke:none"
             id="path150"
             inkscape:connector-curvature="0" /></g><g
           id="g152"
           transform="translate(590.6753,308.6895)"><path
             d="m 0,0 c 1,0 1.999,-0.02 2.998,0.004 2.653,0.061 5.902,-0.787 7.816,0.439 2.68,1.718 -0.417,4.625 -0.451,7.095 -0.049,3.537 1.791,4.386 4.753,3.908 6.159,-0.992 11.609,-6.633 12.121,-12.947 0.499,-6.148 0.254,-12.316 -0.991,-18.395 -0.772,-3.769 -2.959,-5.166 -6.527,-3.419 -22.728,11.124 -47.335,15.132 -71.962,19.047 -6.934,1.102 -9.344,4.472 -6.512,10.644 4.486,9.778 3.087,19.823 2.263,29.91 -0.231,2.831 -2.338,6.185 0.978,8.26 2.864,1.791 5.724,0.282 8.334,-1.472 2.251,-1.511 4.771,-2.125 7.551,-2.156 9.507,-0.105 18.97,0.579 28.436,1.266 8.801,0.638 16.812,3.425 24.398,8.008 9.713,5.868 17.849,1.415 18.133,-9.822 0.142,-5.673 0.592,-11.29 1.182,-16.917 0.153,-1.468 0.114,-2.993 -0.09,-4.456 -1.108,-7.923 -4.508,-9.514 -11.117,-5.094 -5.533,3.701 -10.94,7.591 -17.112,10.212 -2.458,1.044 -4.951,1.863 -7.666,2.041 -3.29,0.216 -4.993,-1.154 -5.324,-4.449 -0.182,-1.812 -0.46,-3.651 -0.992,-5.388 -2.336,-7.627 -8.871,-10.42 -16.111,-6.928 -4.584,2.212 -4.813,6.218 -3.46,10.228 1.055,3.125 -0.267,3.941 -2.754,4.316 -2.483,0.375 -4.975,0.555 -7.285,-0.808 -4.005,-2.364 -4.683,-6.02 -1.394,-9.474 C -31.751,4.162 -20.282,0.465 -7.493,0.139 -4.997,0.074 -2.497,0.129 0,0.129 L 0,0 Z"
             style="fill:#04822b;fill-opacity:1;fill-rule:evenodd;stroke:none"
             id="path154"
             inkscape:connector-curvature="0" /></g><g
           id="g156"
           transform="translate(576.9204,184.3691)"><path
             d="m 0,0 c 0.211,-3.288 -1.014,-5.173 -2.366,-6.808 -5.203,-6.289 -9.865,-12.939 -14.382,-19.737 -4.456,-6.705 -9.126,-6.179 -12.136,1.31 -9.777,24.329 -27.04,42.459 -47.739,57.631 -5.945,4.359 -11.149,9.882 -18.763,12.014 -3.163,0.886 -3.398,4.608 -0.703,6.91 5.837,4.985 11.281,10.322 16.411,16.023 2.577,2.864 4.336,0.931 5.74,-1.503 8.765,-15.194 20.666,-27.623 33.864,-39.005 C -30.387,18.48 -19.612,12.086 -7.889,7.123 -4.19,5.557 -0.555,3.751 0,0"
             style="fill:#04822b;fill-opacity:1;fill-rule:evenodd;stroke:none"
             id="path158"
             inkscape:connector-curvature="0" /></g></g></g><g
       id="g160"><g
         id="g162"
         clip-path="url(#clipPath164)"><g
           id="g168"
           transform="translate(298.8701,362.6494)"><path
             d="M 0,0 C -0.168,1.875 -1.198,2.787 -2.901,2.748 -4.924,2.7 -6.426,1.625 -6.637,-0.406 -6.826,-2.22 -5.489,-3.067 -3.794,-2.908 -1.962,-2.736 -0.227,-2.209 0,0 m -92.383,53.938 c -3.715,0.135 -5.239,-0.596 -5.541,-2.422 -0.429,-2.592 1.453,-3.481 3.364,-4.229 1.391,-0.544 2.831,-0.96 4.259,-1.406 24.87,-7.764 48.784,-17.504 69.506,-33.785 2.528,-1.988 4.641,-0.906 6.006,1.017 2.224,3.132 -0.591,4.875 -2.679,6.398 -16.088,11.734 -33.761,20.458 -52.311,27.554 -7.616,2.914 -15.333,5.382 -22.604,6.873 m -7.472,12.913 c 0.095,-2.89 1.846,-4.404 4.312,-5.521 25.599,-11.6 51.132,-23.349 76.796,-34.803 7.495,-3.343 12.437,-9.386 17.591,-15.175 4.412,-4.956 7.932,-10.64 10.96,-16.623 1.829,-3.614 0.941,-5.508 -2.67,-6.813 -9.711,-3.512 -19.537,-6.685 -29.955,-6.85 -33.283,-0.526 -66.569,-0.875 -99.854,-1.267 -5.602,-0.066 -5.503,-0.039 -3.75,5.353 8.014,24.646 14.682,49.688 21.842,74.584 0.745,2.594 1.581,5.39 -2.321,6.367 2.124,2.385 4.61,1.348 7.049,0.748"
             style="fill:#838b7b;fill-opacity:1;fill-rule:evenodd;stroke:none"
             id="path170"
             inkscape:connector-curvature="0" /></g><g
           id="g172"
           transform="translate(324.7349,401.3398)"><path
             d="m 0,0 c -1.645,0.041 -2.554,-0.833 -2.687,-2.326 -0.161,-1.811 0.365,-3.378 2.548,-3.449 1.819,-0.061 2.741,1.239 2.867,2.806 C 2.871,-1.196 1.477,-0.452 0,0 m -2.694,97.028 c -0.649,-3.335 0.71,-6.246 2.114,-9.063 10.169,-20.409 16.365,-42.077 20.407,-64.412 0.729,-4.032 0.796,-8.184 0.381,-12.423 -0.957,5.234 -1.809,10.491 -2.889,15.7 -3.738,18.028 -11.608,34.611 -18.225,51.63 -0.6,1.543 -1.519,3.32 -3.614,2.623 -2.146,-0.715 -2.381,-2.554 -1.674,-4.513 2.874,-7.966 5.341,-16.111 8.745,-23.844 6.085,-13.825 9.582,-28.26 11.53,-43.135 0.401,-3.067 0.914,-5.47 4.818,-3.988 2.225,0.844 2.261,-0.676 2.113,-2.024 -0.541,-4.932 -1.073,-9.87 -1.864,-14.766 -0.841,-5.21 -2.32,-5.95 -7.495,-5.279 -16.852,2.184 -30.375,11.153 -43.421,21.09 -11.205,8.534 -19.949,19.503 -29.321,29.858 -3.621,4.001 -6.503,8.973 -12.176,10.688 0.667,1.101 1.337,2.204 2.005,3.304 1.902,-1.827 3.87,-1.549 5.845,-0.154 18.165,12.839 36.325,25.686 54.489,38.526 3.25,2.298 4.628,5.131 2.644,8.964 1.639,1.428 3.357,2.502 5.588,1.218"
             style="fill:#838b7b;fill-opacity:1;fill-rule:evenodd;stroke:none"
             id="path174"
             inkscape:connector-curvature="0" /></g><g
           id="g176"
           transform="translate(440.2534,474.5449)"><path
             d="m 0,0 c -3.325,-1.358 -4.244,-4.459 -5.369,-7.411 -4.852,-12.73 -9.303,-25.618 -15.131,-37.955 -0.772,-1.636 -1.824,-3.139 -2.746,-4.703 0,0 -0.348,0.26 -0.343,0.257 -0.044,1.879 0.681,3.545 1.324,5.27 4.064,10.889 8.061,21.803 12.066,32.714 0.898,2.448 1.566,5.405 -1.33,6.465 -2.49,0.91 -3.535,-2.005 -4.352,-3.893 -5.867,-13.574 -10.777,-27.514 -15.393,-41.553 -0.455,-1.379 -1.773,-3.193 0.037,-4.596 1.663,-1.292 3.127,0.248 4.665,0.634 0.129,-0.122 0.258,-0.242 0.388,-0.36 -3.387,-8.176 -9.272,-13.976 -17.071,-17.959 -0.122,0.124 -0.245,0.246 -0.371,0.367 0.11,2.197 1.157,4.991 -2.284,5.427 -1.781,0.226 -2.959,-1.38 -3.256,-3.117 -0.506,-2.967 1.289,-3.728 3.821,-3.587 l -0.053,0.061 c -6.094,-5.991 -10.705,-5.618 -15.198,1.369 -7.474,11.62 -10.222,24.72 -11.795,38.178 -1.793,15.33 -3.531,30.665 -4.016,46.111 -0.082,2.615 -1.043,4.557 -4.13,4.458 1.44,3.129 4.117,1.648 6.378,1.711 0.259,-3.423 2.189,-4.541 5.521,-5.015 16.993,-2.416 33.913,-5.375 50.935,-7.565 5.33,-0.686 10.965,-3.543 16.36,0.14 C 0.35,3.938 0.421,2.03 0,0"
             style="fill:#838b7b;fill-opacity:1;fill-rule:evenodd;stroke:none"
             id="path178"
             inkscape:connector-curvature="0" /></g><g
           id="g180"
           transform="translate(425.4546,379.4404)"><path
             d="m 0,0 c 0.336,-0.985 -0.255,-3.555 2.275,-4.472 1.89,-0.685 3.385,0.684 3.799,2.331 1.283,5.118 2.211,10.33 2.224,15.629 0.004,1.697 -0.755,3.34 -2.736,3.638 C 3.406,17.449 2.785,15.854 2.282,14.169 1,9.879 0.484,5.459 0,0 M 66.699,13.881 C 65.336,12.496 63.67,11.114 62.074,13.082 59.926,15.73 57.939,14.963 55.552,13.688 47.775,9.532 39.949,5.469 32.134,1.386 30.132,0.34 28.238,-0.887 28.576,-3.476 28.95,-6.349 27.306,-7.203 25.021,-7.914 16.65,-10.519 8.341,-10 -0.018,-7.831 c -2.675,0.694 -2.529,2.559 -2.647,4.614 -0.799,13.907 4.163,25.462 13.245,35.904 8.171,9.392 15.609,19.446 23.02,29.466 2.924,3.954 4.201,2.895 6.104,-0.59 7.018,-12.844 14.164,-25.62 21.277,-38.413 1.447,-2.599 2.753,-5.327 5.539,-6.852 0.06,-0.806 0.12,-1.611 0.179,-2.417"
             style="fill:#838b7b;fill-opacity:1;fill-rule:evenodd;stroke:none"
             id="path182"
             inkscape:connector-curvature="0" /></g></g></g><g
       id="g184"><g
         id="g186"
         clip-path="url(#clipPath188)"><g
           id="g192"
           transform="translate(347.6929,409.4932)"><path
             d="M 0,0 C -0.495,0.394 -0.795,0.821 -1.128,0.849 -1.516,0.88 -2.199,0.646 -2.285,0.377 -2.524,-0.368 -1.959,-0.768 -1.28,-0.729 -0.915,-0.71 -0.57,-0.341 0,0 m -5.678,-41.556 c -0.364,-0.18 -0.731,-0.258 -0.944,-0.483 -3.541,-3.733 -7.078,-7.472 -10.58,-11.242 -0.981,-1.056 -0.327,-1.868 0.69,-2.282 7.064,-2.868 14.113,-5.783 21.251,-8.455 2.284,-0.855 2.632,0.421 1.588,2.324 -3.352,6.108 -6.677,12.232 -10.018,18.346 -0.458,0.838 -0.758,1.886 -1.987,1.792 m 42.703,-17.223 c 7.352,5.546 13.591,10.212 19.776,14.948 1.519,1.164 2.099,2.719 0.409,4.207 -3.876,3.411 -7.835,6.747 -12.392,9.228 -2.144,1.167 -4.017,0.772 -4.394,-2.001 -1.137,-8.368 -2.166,-16.75 -3.399,-26.382 m -11.279,31.925 c -5.645,-0.547 -10.991,-2.303 -16.268,-4.367 -2.826,-1.105 -3.292,-2.618 -1.845,-5.347 4.439,-8.37 8.642,-16.866 12.997,-25.281 0.627,-1.212 0.81,-3.338 2.765,-2.903 1.459,0.325 1.245,2.223 1.423,3.43 1.504,10.184 2.853,20.392 4.334,30.581 0.401,2.761 -0.339,4.241 -3.406,3.887 m -5.51,-291.443 c 0.934,0.11 1.6,0.157 2.256,0.272 25.389,4.396 50.78,8.773 76.158,13.225 4.601,0.808 4.891,2.402 1.393,6.342 -15.699,17.68 -31.398,35.36 -47.096,53.041 -3.681,4.146 -4.804,3.949 -7.048,-1.372 -5.297,-12.567 -10.553,-25.154 -15.841,-37.726 -4.063,-9.658 -8.153,-19.304 -12.223,-28.96 -1.145,-2.717 -1.485,-5.013 2.401,-4.822 m 124.225,302.125 c 0.166,0.014 0.333,0.047 0.498,0.038 2.231,-0.118 5.055,3.2 6.562,-0.335 1.332,-3.125 -1.741,-4.716 -3.973,-6.019 -11.642,-6.795 -23.265,-13.616 -35.563,-19.22 -11.176,-5.092 -22.739,-6.226 -34.655,-3.858 -2.567,0.509 -4.275,0.202 -6.24,-1.56 -9.807,-8.794 -20.08,-17.023 -31.073,-24.297 -2.725,-1.803 -3.482,-3.678 -3.087,-6.987 3.623,-30.403 7.281,-60.797 11.91,-91.069 2.49,-16.276 4.8,-32.579 7.011,-48.894 0.361,-2.667 1.438,-4.617 3.158,-6.532 20.929,-23.306 41.762,-46.698 62.751,-69.949 4.507,-4.993 7.596,-10.249 5.388,-17.089 -2.212,-6.862 -7.961,-9.62 -14.415,-10.802 -18.981,-3.476 -38.004,-6.717 -57.014,-10.034 -14.579,-2.544 -29.17,-5.024 -43.74,-7.616 -5.896,-1.048 -11.6,-0.976 -15.375,4.373 -3.756,5.323 -3.392,11.187 -0.878,17.107 13.009,30.632 25.925,61.304 38.934,91.936 0.91,2.143 0.794,4.203 0.478,6.352 -5.527,37.532 -11.06,75.063 -16.58,112.595 -1.113,7.569 -2.287,15.132 -3.193,22.726 -0.256,2.152 -1.07,3.15 -3.02,3.933 -14.36,5.766 -28.684,11.623 -42.992,17.519 -2.149,0.884 -3.851,0.879 -6.043,-0.33 -9.757,-5.378 -20.19,-8.417 -31.441,-8.633 -34.814,-0.669 -69.626,-1.466 -104.439,-2.197 -1.829,-0.038 -3.661,0.071 -5.492,0.118 -1.249,0.034 -3.04,0.815 -2.843,1.537 1.118,4.093 -3.221,7.068 -1.82,11.256 7.549,22.56 13.39,45.626 20.136,68.423 1.378,4.655 2.386,9.799 6.862,12.939 3.902,-0.977 3.066,-3.773 2.321,-6.366 -7.159,-24.897 -13.828,-49.939 -21.842,-74.584 -1.753,-5.393 -1.852,-5.419 3.75,-5.354 33.285,0.393 66.571,0.741 99.854,1.268 10.418,0.165 20.244,3.338 29.956,6.849 3.61,1.305 4.498,3.199 2.669,6.814 -3.028,5.982 -6.547,11.667 -10.96,16.622 -5.154,5.789 -10.096,11.832 -17.59,15.176 -25.665,11.454 -51.198,23.203 -76.797,34.802 -2.466,1.118 -4.217,2.631 -4.312,5.521 1.894,3.397 4.705,2.576 7.36,1.393 24.458,-10.885 49.183,-21.231 73.223,-32.977 15.698,-7.67 27.93,-19.756 35.078,-36.238 0.552,-1.272 0.438,-3.299 2.496,-3.196 1.631,0.082 2.507,1.53 3.264,2.829 3.445,5.913 7.089,11.654 13.077,15.251 -0.412,1.836 -1.714,1.69 -2.763,1.901 -14.106,2.839 -26.646,8.701 -37.971,17.785 -15.591,12.507 -28.111,27.848 -41.299,42.607 -2.345,2.625 -1.869,5.101 -0.01,7.655 5.673,-1.715 8.555,-6.687 12.176,-10.688 9.372,-10.355 18.116,-21.324 29.321,-29.858 13.046,-9.938 26.569,-18.907 43.421,-21.09 5.175,-0.671 6.654,0.068 7.495,5.279 0.791,4.896 1.323,9.834 1.864,14.766 0.148,1.347 0.112,2.868 -2.113,2.023 -3.904,-1.481 -4.417,0.922 -4.818,3.988 -1.948,14.875 -5.445,29.311 -11.53,43.135 -3.404,7.734 -5.871,15.879 -8.745,23.845 -0.707,1.959 -0.472,3.798 1.674,4.513 2.095,0.697 3.014,-1.08 3.614,-2.623 6.617,-17.019 14.487,-33.602 18.225,-51.63 1.08,-5.209 1.932,-10.466 2.889,-15.7 0.415,4.239 0.348,8.39 -0.381,12.422 -4.042,22.335 -10.238,44.003 -20.407,64.413 -1.404,2.817 -2.763,5.728 -2.114,9.063 3.918,2.834 5.459,-0.491 6.851,-2.961 4.008,-7.108 6.991,-14.707 9.539,-22.435 C -2.97,44.39 3.256,25.246 3.557,4.859 3.662,-2.27 3.807,-9.436 2.401,-16.509 c -0.279,-1.404 -0.909,-3.172 0.445,-4.201 1.25,-0.95 2.458,0.469 3.639,0.94 5.882,2.348 11.885,4.293 18.216,4.867 2.932,0.264 4.157,1.072 2.2,3.878 C 17.84,1.97 14.889,16.873 13.445,32.227 c -1.354,14.391 -2.978,28.765 -3.293,43.236 -0.046,2.114 -0.533,4.424 1.871,5.766 3.087,0.099 4.048,-1.843 4.13,-4.458 0.486,-15.446 2.224,-30.781 4.016,-46.111 1.574,-13.458 4.322,-26.558 11.796,-38.179 4.493,-6.986 9.103,-7.359 15.198,-1.369 0.851,-0.059 1.616,0.092 2.143,0.85 7.798,3.982 13.683,9.783 17.069,17.96 0.77,0.516 0.988,1.252 0.853,2.131 0.325,0.34 0.651,0.678 0.978,1.017 0.825,0.373 1.018,1.114 1.108,1.912 0.922,1.565 1.974,3.068 2.747,4.704 5.828,12.336 10.279,25.225 15.13,37.955 1.125,2.952 2.044,6.052 5.37,7.411 2.578,-2.17 1.724,-4.882 0.918,-7.372 C 87.227,38.359 79.813,19.512 69.594,1.905 65.34,-5.424 59.221,-11.016 51.678,-15.003 c -1.141,-0.603 -4.231,-1.475 -1.295,-3.003 6.655,-3.465 12.58,-7.789 18.284,-13.993 0.983,5.772 0.499,10.591 1.785,15.202 1.85,6.629 4.486,12.663 8.921,18.147 9.83,12.152 19.168,24.704 28.677,37.117 5.195,6.782 8.977,7.143 13.475,-0.196 9.032,-14.734 17.418,-29.868 25.885,-44.94 1.819,-3.237 1.269,-6.206 -3.129,-7.086 -2.785,1.526 -4.092,4.253 -5.538,6.853 -7.113,12.793 -14.26,25.568 -21.277,38.413 -1.903,3.484 -3.18,4.544 -6.105,0.59 C 103.951,22.08 96.513,12.026 88.342,2.634 79.26,-7.808 74.298,-19.362 75.097,-33.27 c 0.118,-2.055 -0.029,-3.919 2.647,-4.614 8.359,-2.169 16.668,-2.687 25.039,-0.083 2.284,0.711 3.929,1.566 3.555,4.439 -0.338,2.589 1.556,3.815 3.558,4.861 7.815,4.083 15.641,8.146 23.417,12.302 2.388,1.275 4.374,2.043 6.523,-0.606 1.596,-1.967 3.262,-0.586 4.625,0.799"
             style="fill:#46413a;fill-opacity:1;fill-rule:evenodd;stroke:none"
             id="path194"
             inkscape:connector-curvature="0" /></g><g
           id="g196"
           transform="translate(316.4526,497.1494)"><path
             d="m 0,0 c 1.984,-3.833 0.606,-6.666 -2.644,-8.964 -18.164,-12.84 -36.324,-25.686 -54.489,-38.525 -1.974,-1.396 -3.943,-1.673 -5.845,0.153 -1.288,3.726 1.72,5.035 3.901,6.628 17.984,13.138 36.013,26.213 54.036,39.297 C -3.549,-0.329 -2.009,0.707 0,0"
             style="fill:#46413b;fill-opacity:1;fill-rule:evenodd;stroke:none"
             id="path198"
             inkscape:connector-curvature="0" /></g><g
           id="g200"
           transform="translate(438.9106,479.9932)"><path
             d="m 0,0 c -5.396,-3.684 -11.03,-0.826 -16.36,-0.141 -17.022,2.191 -33.942,5.15 -50.935,7.566 -3.332,0.473 -5.263,1.592 -5.521,5.014 1.642,2.293 3.779,2.765 6.534,2.316 C -45.848,11.42 -25.394,8.207 -4.948,4.938 -2.142,4.49 0.313,3.612 0,0"
             style="fill:#46413b;fill-opacity:1;fill-rule:evenodd;stroke:none"
             id="path202"
             inkscape:connector-curvature="0" /></g><g
           id="g204"
           transform="translate(206.4873,416.5879)"><path
             d="m 0,0 c 7.271,-1.491 14.988,-3.96 22.604,-6.873 18.549,-7.097 36.223,-15.82 52.311,-27.555 2.087,-1.522 4.903,-3.265 2.679,-6.397 -1.365,-1.923 -3.478,-3.005 -6.006,-1.018 -20.722,16.281 -44.636,26.022 -69.506,33.785 -1.428,0.447 -2.869,0.863 -4.259,1.407 -1.911,0.748 -3.793,1.636 -3.365,4.228 C -5.239,-0.597 -3.715,0.135 0,0"
             style="fill:#46413b;fill-opacity:1;fill-rule:evenodd;stroke:none"
             id="path206"
             inkscape:connector-curvature="0" /></g><g
           id="g208"
           transform="translate(298.8701,362.6494)"><path
             d="M 0,0 C -0.227,-2.209 -1.962,-2.736 -3.794,-2.908 -5.489,-3.067 -6.826,-2.22 -6.637,-0.406 -6.426,1.625 -4.924,2.7 -2.901,2.748 -1.198,2.787 -0.168,1.875 0,0"
             style="fill:#46413b;fill-opacity:1;fill-rule:evenodd;stroke:none"
             id="path210"
             inkscape:connector-curvature="0" /></g><g
           id="g212"
           transform="translate(324.7349,401.3398)"><path
             d="M 0,0 C 1.477,-0.452 2.871,-1.196 2.728,-2.969 2.602,-4.536 1.68,-5.836 -0.139,-5.775 -2.322,-5.704 -2.848,-4.137 -2.687,-2.326 -2.554,-0.833 -1.645,0.041 0,0"
             style="fill:#46413b;fill-opacity:1;fill-rule:evenodd;stroke:none"
             id="path214"
             inkscape:connector-curvature="0" /></g><g
           id="g216"
           transform="translate(415.8687,422.5908)"><path
             d="m 0,0 c -0.336,-0.33 -0.672,-0.661 -1.008,-0.991 -0.824,-0.332 -1.025,-1.066 -1.177,-1.828 -1.541,-0.384 -3.004,-1.924 -4.668,-0.632 -1.809,1.403 -0.491,3.217 -0.037,4.597 4.617,14.039 9.527,27.978 15.394,41.552 0.816,1.888 1.862,4.803 4.351,3.893 2.897,-1.06 2.229,-4.017 1.331,-6.465 C 10.181,29.215 6.184,18.301 2.12,7.412 1.477,5.687 0.752,4.021 0.796,2.143 0,1.625 -0.102,0.85 0,0"
             style="fill:#46413b;fill-opacity:1;fill-rule:evenodd;stroke:none"
             id="path218"
             inkscape:connector-curvature="0" /></g><g
           id="g220"
           transform="translate(396.6274,401.8223)"><path
             d="m 0,0 c -0.573,-0.426 -1.146,-0.852 -1.719,-1.277 -2.532,-0.141 -4.327,0.62 -3.821,3.587 0.297,1.737 1.475,3.342 3.256,3.117 C 1.157,4.99 0.11,2.196 0,0"
             style="fill:#46413b;fill-opacity:1;fill-rule:evenodd;stroke:none"
             id="path222"
             inkscape:connector-curvature="0" /></g><g
           id="g224"
           transform="translate(425.4546,379.4404)"><path
             d="m 0,0 c 0.484,5.459 1,9.879 2.282,14.169 0.503,1.685 1.124,3.28 3.28,2.957 1.981,-0.298 2.74,-1.941 2.736,-3.638 C 8.285,8.189 7.357,2.977 6.074,-2.141 5.66,-3.788 4.165,-5.157 2.275,-4.472 -0.255,-3.555 0.336,-0.985 0,0"
             style="fill:#46413b;fill-opacity:1;fill-rule:evenodd;stroke:none"
             id="path226"
             inkscape:connector-curvature="0" /></g></g></g></g></svg>